<svg width="194" height="189" viewBox="0 0 194 189" fill="none" xmlns="http://www.w3.org/2000/svg">
<path d="M88.2505 10.1081C83.929 6.81158 77.2583 3.32673 70.2945 3.50667C66.7211 3.599 63.0902 4.66224 59.8025 7.17003C56.55 9.65098 53.8365 13.3892 51.7798 18.5183C51.7768 18.5194 51.7737 18.5203 51.7705 18.5211C51.7635 18.5227 51.7596 18.5224 51.7585 18.5223C46.5999 18.0183 39.8237 18.7768 34.2092 22.8773C28.4394 27.0912 24.5156 34.3762 24.3664 45.6163C24.3527 45.6502 24.3122 45.7307 24.206 45.8569C23.9891 46.1148 23.6316 46.3913 23.2175 46.5868C17.3454 49.358 12.5196 57.2788 12.7501 72.8851C12.748 72.8872 12.7458 72.8895 12.7434 72.8918C12.724 72.9108 12.6987 72.9309 12.6683 72.9489C9.55387 74.7944 6.05464 78.0515 4.72109 82.8514C3.34825 87.7928 4.4899 93.5538 9.09898 99.8351C6.47387 104.154 3.85085 110.425 3.53227 117.17C3.20554 124.088 5.32526 131.508 12.2037 137.476C12.2106 137.485 12.2299 137.515 12.2503 137.578C12.2862 137.689 12.306 137.85 12.2814 138.029C11.9143 140.693 12.2225 144.026 14.1061 147.202C16.0054 150.404 19.3036 153.104 24.298 154.832C24.2036 158.515 24.4805 162.616 25.3781 166.501C26.2785 170.399 27.8615 174.33 30.5605 177.35C33.3545 180.476 37.2157 182.467 42.1606 182.51C46.926 182.551 52.426 180.784 58.7633 177.063C61.5518 181.035 66.3845 185.75 72.6997 185.49C79.2303 185.222 85.0689 179.786 90.1086 168.993C90.5048 168.144 90.7174 167.198 90.7174 166.253V15.1616C90.7174 13.2769 89.896 11.3634 88.2505 10.1081ZM24.3727 45.5979C24.3728 45.5979 24.3723 45.6001 24.3709 45.6045C24.3718 45.6001 24.3725 45.5979 24.3727 45.5979Z" stroke="white" stroke-width="7" stroke-linecap="round" stroke-linejoin="round"/>
<path d="M105.75 10.1081C110.071 6.81158 116.742 3.32673 123.706 3.50666C127.279 3.599 130.91 4.66224 134.198 7.17003C137.45 9.65098 140.164 13.3892 142.22 18.5183C142.223 18.5194 142.226 18.5203 142.23 18.5211C142.237 18.5227 142.24 18.5224 142.241 18.5223C147.4 18.0183 154.176 18.7768 159.791 22.8773C165.561 27.0912 169.484 34.3762 169.634 45.6163C169.647 45.6501 169.688 45.7307 169.794 45.8569C170.011 46.1148 170.368 46.3913 170.783 46.5868C176.655 49.358 181.48 57.2788 181.25 72.8851C181.252 72.8872 181.254 72.8895 181.257 72.8918C181.276 72.9108 181.301 72.9309 181.332 72.9489C184.446 74.7944 187.945 78.0515 189.279 82.8514C190.652 87.7928 189.51 93.5538 184.901 99.8351C187.526 104.154 190.149 110.425 190.468 117.17C190.794 124.088 188.675 131.508 181.796 137.476C181.789 137.485 181.77 137.515 181.75 137.578C181.714 137.689 181.694 137.85 181.719 138.029C182.086 140.693 181.778 144.026 179.894 147.202C177.995 150.404 174.696 153.104 169.702 154.832C169.796 158.515 169.52 162.616 168.622 166.501C167.721 170.399 166.139 174.33 163.439 177.35C160.646 180.476 156.784 182.467 151.839 182.51C147.074 182.551 141.574 180.784 135.237 177.063C132.448 181.035 127.616 185.75 121.3 185.49C114.77 185.222 108.931 179.786 103.891 168.993C103.495 168.144 103.283 167.198 103.283 166.253V15.1616C103.283 13.2769 104.104 11.3634 105.75 10.1081ZM169.627 45.5979C169.627 45.5979 169.628 45.6001 169.629 45.6045C169.628 45.6001 169.627 45.5979 169.627 45.5979Z" stroke="white" stroke-width="7" stroke-linecap="round" stroke-linejoin="round"/>
<path d="M68.8881 73.1002C67.9183 67.5134 65.0491 60.0915 59.6896 57.7996M42.9961 64.4195C50.1562 57.2675 55.6354 56.0658 59.6896 57.7996M59.6896 57.7996C56.3963 51.703 52.8078 39.2077 64.7999 38" stroke="white" stroke-width="7" stroke-linecap="round" stroke-linejoin="round"/>
<path d="M71.0633 93.1051C65.9927 92.2039 58.716 92.6524 54.9389 97.4478M54.8445 117.09C51.2269 107.19 52.0816 101.075 54.9389 97.4478M54.9389 97.4478C48.6412 98.791 36.8151 98.2532 39.8921 85.3561" stroke="white" stroke-width="7" stroke-linecap="round" stroke-linejoin="round"/>
<path d="M63.5194 128.059C60.2796 132.473 56.9918 139.679 58.852 145.701M74.1599 155.612C64.6121 154.133 60.2591 150.256 58.852 145.701M58.852 145.701C56.7532 152.414 50.4197 163.491 41.8762 154.091" stroke="white" stroke-width="7" stroke-linecap="round" stroke-linejoin="round"/>
<path d="M125.883 73.1002C126.853 67.5134 129.722 60.0915 135.082 57.7996M151.775 64.4195C144.615 57.2675 139.136 56.0658 135.082 57.7996M135.082 57.7996C138.375 51.703 141.964 39.2077 129.972 38" stroke="white" stroke-width="7" stroke-linecap="round" stroke-linejoin="round"/>
<path d="M123.708 93.1051C128.779 92.2039 136.055 92.6524 139.832 97.4478M139.927 117.09C143.544 107.19 142.69 101.075 139.832 97.4478M139.832 97.4478C146.13 98.791 157.956 98.2532 154.879 85.3561" stroke="white" stroke-width="7" stroke-linecap="round" stroke-linejoin="round"/>
<path d="M131.252 128.059C134.491 132.473 137.779 139.679 135.919 145.701M120.611 155.612C130.159 154.133 134.512 150.256 135.919 145.701M135.919 145.701C138.018 152.414 144.351 163.491 152.895 154.091" stroke="white" stroke-width="7" stroke-linecap="round" stroke-linejoin="round"/>
</svg>
