<svg width="230" height="246" viewBox="0 0 230 246" fill="none" xmlns="http://www.w3.org/2000/svg">
<path d="M123.755 207.175V233.809H108.401C104.833 233.809 102.13 233.205 100.291 231.997C98.425 230.817 97.4919 229.047 97.4919 226.687C97.4919 225.178 97.8624 223.984 98.6034 223.106C99.3443 222.255 100.401 221.624 101.773 221.212C103.118 220.8 104.709 220.54 106.548 220.43L106.384 220.718C105.039 220.691 103.776 220.595 102.596 220.43C101.389 220.265 100.332 219.963 99.4267 219.524C98.521 219.085 97.8075 218.468 97.2861 217.672C96.7647 216.904 96.504 215.888 96.504 214.626C96.504 212.979 96.943 211.607 97.8212 210.509C98.6994 209.439 99.9206 208.629 101.485 208.081C103.049 207.532 104.86 207.23 106.919 207.175H123.755ZM118.28 211.703H107.495C105.766 211.703 104.435 211.977 103.502 212.526C102.569 213.103 102.102 214.008 102.102 215.243C102.102 216.149 102.377 216.807 102.926 217.219C103.475 217.631 104.202 217.878 105.107 217.96C106.013 218.07 106.987 218.125 108.03 218.125H118.28V211.703ZM118.28 222.529H108.606C106.877 222.529 105.546 222.776 104.613 223.27C103.68 223.792 103.214 224.67 103.214 225.905C103.214 227.14 103.68 228.004 104.613 228.498C105.546 229.02 106.781 229.28 108.318 229.28H118.28V222.529Z" fill="white"/>
<path d="M94.2112 202.864L83.3783 227.195L66.8693 219.845C64.989 219.008 63.4766 218.019 62.3321 216.879C61.1514 215.752 60.418 214.464 60.132 213.015C59.8348 211.591 60.0657 210.027 60.8247 208.322C61.3381 207.169 61.974 206.28 62.7324 205.657C63.4907 205.033 64.345 204.632 65.2953 204.455C66.2205 204.266 67.2083 204.24 68.2587 204.377C69.2979 204.539 70.3608 204.817 71.4472 205.211L71.8398 205.746C70.096 204.94 68.7214 204.147 67.716 203.369C66.6994 202.616 66.0717 201.766 65.8326 200.819C65.5574 199.885 65.7212 198.741 66.3239 197.387L68.9024 191.596L73.904 193.823L71.4762 199.276C71.0632 200.203 70.908 200.99 71.0107 201.637C71.1022 202.309 71.5295 202.934 72.2926 203.514C73.0307 204.083 74.1894 204.719 75.7688 205.423L85.2079 209.625L89.2096 200.637L94.2112 202.864ZM83.4666 213.536L71.9592 208.413C70.5553 207.788 69.3391 207.652 68.3107 208.005C67.2572 208.347 66.4737 209.095 65.9602 210.248C65.4691 211.351 65.4712 212.358 65.9666 213.27C66.4369 214.17 67.3741 214.933 68.778 215.558L80.2854 220.681L83.4666 213.536Z" fill="white"/>
<path d="M58.3639 187.683L54.9682 190.741L43.1791 177.647L46.5748 174.59L58.3639 187.683ZM67.1119 188.725L38.9457 197.246L34.9793 192.841L46.3157 165.628L50.3097 170.064L39.8018 194.26L38.0389 192.302L63.1455 184.319L67.1119 188.725Z" fill="white"/>
<path d="M20.6898 165.523L18.998 160.316L44.3281 152.086L46.0199 157.293L20.6898 165.523Z" fill="white"/>
<path d="M35.5419 117.739L36.0571 119.531L14.2774 117.242L14.8497 111.797L41.3374 114.581L40.7651 120.026L17.5947 139.239L17.0795 137.446L38.6954 139.718L38.1232 145.163L11.6354 142.379L12.2077 136.934L35.5419 117.739Z" fill="white"/>
<path d="M31.9902 72.6566L35.3246 66.8814L41.7533 85.1381L41.8136 85.3631L47.3372 99.3421L44.0029 105.117L37.1177 86.1693L37.0725 86.0006L31.9902 72.6566ZM24.4777 85.6688L38.5845 83.5463L38.7327 83.5367L58.4517 80.0912L54.9733 86.1161L40.0244 88.1327L39.8914 88.1985L21.1433 91.4441L24.4777 85.6688Z" fill="white"/>
<path d="M85.8994 54.4883L84.9494 50.0189L102.183 46.3558L103.133 50.8252L85.8994 54.4883ZM80.6235 61.5436L87.3267 32.8902L93.1249 31.6578L111.024 55.0819L105.185 56.3229L89.485 35.1248L92.062 34.5771L86.4217 60.3112L80.6235 61.5436Z" fill="white"/>
<path d="M145.303 50.2467C144.616 52.2892 143.499 53.9173 141.95 55.1313C140.401 56.3452 138.484 57.116 136.198 57.4437C133.912 57.7714 131.306 57.6243 128.38 57.0024C125.937 56.4832 123.756 55.7249 121.835 54.7275C119.942 53.7359 118.377 52.5194 117.14 51.0782C115.93 49.6427 115.099 48.0071 114.648 46.1717C114.202 44.3094 114.219 42.2508 114.698 39.9959C115.177 37.7411 115.999 35.8537 117.164 34.3337C118.329 32.8137 119.756 31.6441 121.445 30.8248C123.167 29.9843 125.094 29.4962 127.227 29.3604C129.393 29.2035 131.697 29.3846 134.14 29.9039C137.066 30.5258 139.503 31.4648 141.453 32.7209C143.429 33.9826 144.875 35.4964 145.79 37.2621C146.711 39.0009 147.054 40.9535 146.818 43.1198L141.503 41.99C141.393 40.7884 141.008 39.6965 140.347 38.7143C139.719 37.711 138.806 36.8577 137.609 36.1543C136.412 35.4509 134.927 34.911 133.156 34.5344C130.954 34.0665 128.948 34.0047 127.135 34.3488C125.328 34.6662 123.825 35.3989 122.627 36.5471C121.435 37.6684 120.631 39.2089 120.214 41.1685C119.804 43.1012 119.915 44.8222 120.548 46.3315C121.181 47.8409 122.255 49.1214 123.771 50.1731C125.293 51.1979 127.154 51.9443 129.356 52.4121C131.127 52.7887 132.69 52.8964 134.042 52.735C135.422 52.5794 136.6 52.1845 137.577 51.5504C138.58 50.922 139.384 50.1108 139.988 49.117L145.303 50.2467Z" fill="white"/>
<path d="M154.264 59.4135L156.95 55.7169L171.204 66.0728L168.518 69.7695L154.264 59.4135ZM145.491 60.2137L171.27 46.0222L176.065 49.5065L170.634 78.4817L165.805 74.9733L171.053 49.1215L173.185 50.67L150.286 63.6979L145.491 60.2137Z" fill="white"/>
<path d="M204.311 81.5519C205.806 84.1425 206.746 86.4836 207.13 88.5753C207.513 90.667 207.466 92.5326 206.986 94.172C206.544 95.8215 205.757 97.2581 204.626 98.4817C203.508 99.7291 202.189 100.792 200.668 101.67C199.147 102.548 197.541 103.143 195.851 103.453C194.174 103.787 192.48 103.735 190.77 103.297C189.096 102.869 187.438 101.972 185.795 100.608C184.189 99.2535 182.672 97.3405 181.245 94.8687L173.63 81.6783L196.695 68.3615L204.311 81.5519ZM180.431 84.0733L185.248 92.4154C186.236 94.1266 187.254 95.4241 188.303 96.3078C189.389 97.2016 190.481 97.7754 191.578 98.0292C192.676 98.2831 193.758 98.2918 194.826 98.0556C195.894 97.8194 196.915 97.42 197.889 96.8574C198.864 96.2948 199.708 95.6171 200.423 94.8242C201.138 94.0313 201.647 93.1031 201.952 92.0398C202.257 90.9764 202.283 89.7576 202.028 88.3836C201.787 87.0333 201.173 85.5026 200.185 83.7914L195.369 75.4493L180.431 84.0733Z" fill="white"/>
<path d="M200.302 113.649L193.793 114.333L195.94 134.762L191.396 135.24L188.677 109.366L215.164 106.582L217.879 132.415L213.335 132.892L211.192 112.505L204.601 113.197L206.357 129.901L202.058 130.352L200.302 113.649Z" fill="white"/>
<path d="M185.765 161.257L186.566 158.79L204.581 180.745L202.889 185.952L177.559 177.721L179.25 172.514L197.651 178.493L196.892 179.631L182.621 162.14L184.517 156.306L206.265 150.518L206.21 151.885L187.888 145.932L189.58 140.725L214.91 148.955L213.218 154.162L185.765 161.257Z" fill="white"/>
<path d="M188.998 201.368L185.335 205.437L165.542 187.616L169.205 183.547L188.998 201.368Z" fill="white"/>
<path d="M158.572 200.77L160.43 204.945L144.335 212.111L142.476 207.937L158.572 200.77ZM162.265 192.772L161.666 222.193L156.251 224.604L133.873 205.414L139.326 202.986L159.09 220.456L156.684 221.528L156.85 195.183L162.265 192.772Z" fill="white"/>
<circle cx="61.1755" cy="58.2181" r="4.00213" fill="white"/>
</svg>
